# xmcd
#
# Track frame offsets: 
#        150
#        12125
#        22930
#        37225
#        47750
#        58575
#        68900
#        83690
#        96970
#        109118
#        125163
#        138858
#        160565
#        170358
#        181500
#        207090
#        222193
#        235455
#        249235
#        264500
#        275093
#        288678
#        308863
#
# Disc length: 4286 seconds
#
# Revision: 2
# Processed by: cddbd v1.5.2PL0 Copyright (c) Steve Scherf et al.
# Submitted via: ExactAudioCopy v1.0b3
#
DISCID=4410bc17
DTITLE=Rory Block - Best Blues and Originals Vol. 2
DYEAR=1997
DGENRE=
TTITLE0=The Uncloudy Day
TTITLE1=Devil Got My Man
TTITLE2=Down in the Dumps
TTITLE3=Since You Been Gone
TTITLE4=Achin' Heart
TTITLE5=Hilarity Rag
TTITLE6=Kind Hearted Man
TTITLE7=Love My Blues Away
TTITLE8=Elder Green Is Gone
TTITLE9=Just Like A Man
TTITLE10=Swing Low
TTITLE11=Ecstacy
TTITLE12=Feel Just Like Going On
TTITLE13=Frankie and Albert
TTITLE14=No Place Like Home
TTITLE15=Midnight Light
TTITLE16=I Might Find A Way
TTITLE17=Dr. Make It Right
TTITLE18=No Way For Me To Get Along
TTITLE19=Back To The Woods
TTITLE20=I've Got A Rock In My Sock
TTITLE21=Highland Overture (for Wendy)
TTITLE22=Long Journey
EXTD=
EXTT0=
EXTT1=
EXTT2=
EXTT3=
EXTT4=
EXTT5=
EXTT6=
EXTT7=
EXTT8=
EXTT9=
EXTT10=
EXTT11=
EXTT12=
EXTT13=
EXTT14=
EXTT15=
EXTT16=
EXTT17=
EXTT18=
EXTT19=
EXTT20=
EXTT21=
EXTT22=
PLAYORDER=
